<?xml version="1.0" encoding="UTF-8" standalone="no"?>
<!DOCTYPE svg PUBLIC "-//W3C//DTD SVG 1.1//EN" "http://www.w3.org/Graphics/SVG/1.1/DTD/svg11.dtd">
<!-- Created with Vectornator (http://vectornator.io/) -->
<svg height="100%" stroke-miterlimit="10" style="fill-rule:nonzero;clip-rule:evenodd;stroke-linecap:round;stroke-linejoin:round;" version="1.1" viewBox="0 0 1920 1080" width="100%" xml:space="preserve" xmlns="http://www.w3.org/2000/svg" xmlns:vectornator="http://vectornator.io" xmlns:xlink="http://www.w3.org/1999/xlink">
<defs/>
<g id="Layer-1" vectornator:layerName="Layer 1" visibility="hidden">
<path d="M311.877 643.602C278.478 682.243 226.242 681.75 201.187 681.75C177.413 681.75 124.857 683.12 91.4576 644.479C58.0586 605.839 42.6481 566.463 42.4081 492.854C42.1681 419.245 57.0984 388.685 90.4975 350.044C123.896 311.404 176.132 311.897 201.187 311.897C224.962 311.897 277.518 310.527 310.917 349.167C344.316 387.808 357.377 414.614 357.617 488.223C357.857 561.832 345.276 604.962 311.877 643.602ZM231.727 502.717C231.564 479.891 227.789 450.434 201.339 449.656C179.586 449.016 165.864 478 165.581 501.429C165.298 524.858 175.532 546.251 200.726 545.845C228.106 545.404 231.889 525.543 231.727 502.717Z" fill="#000000" fill-rule="nonzero" opacity="1" stroke="none" vectornator:layerName="Curve 1"/>
<path d="M653.686 719.042C620.287 757.682 568.051 757.189 542.996 757.189C519.222 757.189 466.666 758.559 433.267 719.919C399.868 681.278 384.457 641.902 384.217 568.294C383.977 494.685 398.908 464.124 432.307 425.484C465.706 386.843 517.941 387.337 542.996 387.337C566.771 387.337 619.327 385.966 652.726 424.607C686.125 463.247 699.186 490.054 699.426 563.663C699.666 637.272 687.085 680.401 653.686 719.042ZM573.536 578.157C573.373 555.331 569.598 525.873 543.148 525.095C521.396 524.455 507.673 553.44 507.39 576.869C507.107 600.297 517.342 621.691 542.535 621.285C569.915 620.843 573.698 600.982 573.536 578.157Z" fill="#000000" fill-rule="nonzero" opacity="1" stroke="none" vectornator:layerName="Curve 2"/>
<path d="M974.89 474.575C949.867 498.991 910.731 498.679 891.96 498.679C874.148 498.679 834.772 499.545 809.749 475.129C784.726 450.713 773.181 425.832 773.001 379.32C772.821 332.808 784.007 313.497 809.03 289.081C834.053 264.664 873.188 264.976 891.96 264.976C909.772 264.976 949.148 264.11 974.171 288.526C999.194 312.943 1008.98 329.881 1009.16 376.394C1009.34 422.906 999.913 450.159 974.89 474.575ZM914.84 385.552C914.718 371.129 911.89 352.515 892.074 352.023C875.776 351.619 865.495 369.934 865.283 384.738C865.071 399.542 872.739 413.06 891.615 412.804C912.127 412.525 914.962 399.975 914.84 385.552Z" fill="#000000" fill-rule="nonzero" opacity="1" stroke="none"/>
<path d="M280.587 614.958C280.587 592.561 298.744 574.404 321.141 574.404C343.538 574.404 361.694 592.561 361.694 614.958C361.694 637.355 343.538 655.511 321.141 655.511C298.744 655.511 280.587 637.355 280.587 614.958Z" fill="#000000" fill-rule="nonzero" opacity="1" stroke="#000000" stroke-linecap="butt" stroke-linejoin="round" stroke-width="3.39947" vectornator:layerName="Oval 13"/>
<path d="M720.584 594.681C720.584 561.085 747.231 533.851 780.102 533.851C812.973 533.851 839.62 561.085 839.62 594.681C839.62 628.276 812.973 655.511 780.102 655.511C747.231 655.511 720.584 628.276 720.584 594.681Z" fill="#000000" fill-rule="nonzero" opacity="1" stroke="#000000" stroke-linecap="butt" stroke-linejoin="round" stroke-width="3.39947" vectornator:layerName="Oval 6"/>
<path d="M541.822 561.454C541.822 539.057 559.978 520.901 582.375 520.901C604.772 520.901 622.929 539.057 622.929 561.454C622.929 583.851 604.772 602.008 582.375 602.008C559.978 602.008 541.822 583.851 541.822 561.454Z" fill="#000000" fill-rule="nonzero" opacity="1" stroke="#000000" stroke-linecap="butt" stroke-linejoin="round" stroke-width="3.39947" vectornator:layerName="Oval 11"/>
<path d="M126.927 496.823C126.927 474.426 145.084 456.27 167.481 456.27C189.878 456.27 208.034 474.426 208.034 496.823C208.034 519.22 189.878 537.377 167.481 537.377C145.084 537.377 126.927 519.22 126.927 496.823Z" fill="#000000" fill-rule="nonzero" opacity="1" stroke="#000000" stroke-linecap="butt" stroke-linejoin="round" stroke-width="3.39947" vectornator:layerName="Oval 8"/>
<path d="M658.876 671.548C658.876 649.151 677.033 630.995 699.43 630.995C721.827 630.995 739.983 649.151 739.983 671.548C739.983 693.945 721.827 712.102 699.43 712.102C677.033 712.102 658.876 693.945 658.876 671.548Z" fill="#000000" fill-rule="nonzero" opacity="1" stroke="#000000" stroke-linecap="butt" stroke-linejoin="round" stroke-width="3.39947" vectornator:layerName="Oval 14"/>
<path d="M928.055 282.903C928.055 260.506 946.211 242.35 968.608 242.35C991.005 242.35 1009.16 260.506 1009.16 282.903C1009.16 305.3 991.005 323.457 968.608 323.457C946.211 323.457 928.055 305.3 928.055 282.903Z" fill="#000000" fill-rule="nonzero" opacity="1" stroke="#000000" stroke-linecap="butt" stroke-linejoin="round" stroke-width="3.39947" vectornator:layerName="Oval 15"/>
<path d="M1022.99 537.514C1022.99 505.942 1050.8 480.348 1085.1 480.348C1119.41 480.348 1147.22 505.942 1147.22 537.514C1147.22 569.087 1119.41 594.681 1085.1 594.681C1050.8 594.681 1022.99 569.087 1022.99 537.514Z" fill="#000000" fill-rule="nonzero" opacity="1" stroke="#000000" stroke-linecap="butt" stroke-linejoin="round" stroke-width="3.39947" vectornator:layerName="Oval 12"/>
<path d="M869.926 423.153C869.926 400.33 888.049 381.828 910.405 381.828C932.761 381.828 950.884 400.33 950.884 423.153C950.884 445.976 932.761 464.478 910.405 464.478C888.049 464.478 869.926 445.976 869.926 423.153Z" fill="#000000" fill-rule="nonzero" opacity="1" stroke="#000000" stroke-linecap="butt" stroke-linejoin="round" stroke-width="3.39947" vectornator:layerName="Oval 16"/>
<path d="M1175.89 387.68C1175.89 361.068 1198.04 339.494 1225.37 339.494C1252.7 339.494 1274.85 361.068 1274.85 387.68C1274.85 414.293 1252.7 435.866 1225.37 435.866C1198.04 435.866 1175.89 414.293 1175.89 387.68Z" fill="#000000" fill-rule="nonzero" opacity="1" stroke="#000000" stroke-linecap="butt" stroke-linejoin="round" stroke-width="3.39947" vectornator:layerName="Oval 1"/>
<path d="M1234.39 403.672C1214.45 436.699 1200.32 428.406 1182.34 409.175C1168.59 394.47 1167.77 387.331 1167.77 387.331C1167.77 376.306 1166.46 366.17 1164.49 363.151C1162.52 360.132 1159.24 358.623 1154.65 358.623C1149.66 358.623 1145.88 360.657 1143.33 364.726C1140.77 368.795 1139.2 379.412 1139.2 387.68C1139.2 398.311 1144.33 401.882 1147.22 407.263C1149.98 412.644 1154.38 419.128 1167.25 426.74C1204.13 448.659 1227.36 466.64 1236.94 480.683C1246.52 494.727 1251.31 517.367 1251.31 548.604C1251.31 571.309 1248.65 588.044 1243.34 598.806C1238.02 609.568 1227.75 618.591 1212.53 625.876C1197.3 633.16 1179.58 636.802 1159.37 636.802C1137.19 636.802 1118.26 632.602 1102.57 624.202C1086.89 615.802 1076.62 605.106 1071.76 592.112C1066.91 579.119 1064.48 560.678 1064.48 536.791C1064.48 536.791 1051.91 531.398 1064.48 515.923C1089.23 485.458 1107.02 491.12 1126.27 500.816C1145.51 510.512 1141.46 554.707 1141.46 554.707C1141.46 566.65 1142.54 574.328 1144.7 577.741C1146.87 581.153 1150.71 582.859 1156.22 582.859C1161.73 582.859 1165.83 580.694 1168.53 576.362C1171.22 572.031 1172.56 565.6 1172.56 557.069C1172.56 538.301 1161.49 525.132 1156.37 519.357C1151.12 513.582 1146.71 504.833 1126.1 491.314C1105.49 477.664 1091.84 467.755 1085.15 461.587C1078.46 455.418 1072.91 446.887 1068.51 435.993C1064.12 425.1 1061.92 411.188 1061.92 394.257C1061.92 369.845 1065.04 351.995 1071.27 340.708C1077.5 329.42 1087.58 320.594 1101.49 314.228C1115.4 307.863 1132.2 304.68 1151.89 304.68C1173.41 304.68 1191.76 308.158 1206.91 315.114C1222.07 322.07 1232.11 330.831 1237.04 341.397C1241.96 351.962 1244.42 369.91 1244.42 395.241C1244.42 395.241 1244.47 386.98 1234.39 403.672Z" fill="#000000" fill-rule="nonzero" opacity="1" stroke="none"/>
<path d="M749.727 463.569C749.727 363.79 770.925 282.903 797.075 282.903C823.225 282.903 844.423 363.79 844.423 463.569C844.423 563.348 851.482 647.452 797.075 644.235C742.668 641.017 749.727 563.348 749.727 463.569Z" fill="#000000" fill-rule="nonzero" opacity="1" stroke="#000000" stroke-linecap="butt" stroke-linejoin="round" stroke-width="3.39947" vectornator:layerName="Oval 9"/>
<path d="M1604.88 655.511L1591.89 895.497L1530.46 895.497L1517.47 655.511L1604.88 655.511ZM1598.39 910.459L1598.39 974.246L1523.97 974.246L1523.97 910.459L1598.39 910.459Z" fill="#000000" fill-rule="nonzero" opacity="1" stroke="none"/>
<path d="M18.1135 574.404C18.1135 544.003 42.4723 519.357 72.5205 519.357C102.569 519.357 126.927 544.003 126.927 574.404C126.927 604.806 102.569 629.451 72.5205 629.451C42.4723 629.451 18.1135 604.806 18.1135 574.404Z" fill="#000000" fill-rule="nonzero" opacity="1" stroke="#000000" stroke-linecap="butt" stroke-linejoin="round" stroke-width="3.39947" vectornator:layerName="Oval 7"/>
<path d="M568.522 394.541C568.522 364.14 592.881 339.494 622.929 339.494C652.977 339.494 677.336 364.14 677.336 394.541C677.336 424.943 652.977 449.588 622.929 449.588C592.881 449.588 568.522 424.943 568.522 394.541Z" fill="#000000" fill-rule="nonzero" opacity="1" stroke="#000000" stroke-linecap="butt" stroke-linejoin="round" stroke-width="3.39947" vectornator:layerName="Oval 10"/>
<path d="M742.668 320.019C742.668 289.618 767.027 264.972 797.075 264.972C827.123 264.972 851.482 289.618 851.482 320.019C851.482 350.421 827.123 375.066 797.075 375.066C767.027 375.066 742.668 350.421 742.668 320.019Z" fill="#000000" fill-rule="nonzero" opacity="1" stroke="#000000" stroke-linecap="butt" stroke-linejoin="round" stroke-width="3.39947" vectornator:layerName="Oval 2"/>
<path d="M242.805 304.68C242.805 271.572 269.419 244.732 302.249 244.732C335.08 244.732 361.694 271.572 361.694 304.68C361.694 337.789 335.08 364.629 302.249 364.629C269.419 364.629 242.805 337.789 242.805 304.68Z" fill="#000000" fill-rule="nonzero" opacity="1" stroke="#000000" stroke-linecap="butt" stroke-linejoin="round" stroke-width="3.39947" vectornator:layerName="Oval 5"/>
<path d="M366.713 478.972C366.713 445.863 393.328 419.023 426.158 419.023C458.988 419.023 485.603 445.863 485.603 478.972C485.603 512.08 458.988 538.92 426.158 538.92C393.328 538.92 366.713 512.08 366.713 478.972Z" fill="#000000" fill-rule="nonzero" opacity="1" stroke="#000000" stroke-linecap="butt" stroke-linejoin="round" stroke-width="3.39947" vectornator:layerName="Oval 3"/>
<path d="M1226.57 564.9C1226.57 549.699 1237.65 537.377 1251.31 537.377C1264.97 537.377 1276.05 549.699 1276.05 564.9C1276.05 580.101 1264.97 592.424 1251.31 592.424C1237.65 592.424 1226.57 580.101 1226.57 564.9Z" fill="#000000" fill-rule="nonzero" opacity="1" stroke="#000000" stroke-linecap="butt" stroke-linejoin="round" stroke-width="3.39947" vectornator:layerName="Oval 17"/>
<path d="M1058.89 324.534C1058.89 313.569 1067.69 304.68 1078.55 304.68C1089.41 304.68 1098.21 313.569 1098.21 324.534C1098.21 335.499 1089.41 344.388 1078.55 344.388C1067.69 344.388 1058.89 335.499 1058.89 324.534Z" fill="#000000" fill-rule="nonzero" opacity="1" stroke="#000000" stroke-linecap="butt" stroke-linejoin="round" stroke-width="3.39947" vectornator:layerName="Oval 18"/>
</g>
<clipPath id="ArtboardFrame">
<rect height="1080" width="1920" x="0" y="0"/>
</clipPath>
<g clip-path="url(#ArtboardFrame)" id="Layer-3" vectornator:layerName="Layer 3" visibility="hidden">
<path d="M-7.10543e-14 0.486751C-7.10543e-14 0.217926 0.221081-8.52651e-14 0.493798-8.52651e-14L1919.51-8.52651e-14C1919.78-8.52651e-14 1920 0.217926 1920 0.486751L1920 1079.51C1920 1079.78 1919.78 1080 1919.51 1080L0.493798 1080C0.221081 1080-7.10543e-14 1079.78-7.10543e-14 1079.51L-7.10543e-14 0.486751Z" fill="#e184ae" fill-opacity="0.959779" fill-rule="nonzero" opacity="1" stroke="none" vectornator:layerName="Rectangle 1"/>
</g>
<g id="Layer-2" vectornator:layerName="Layer 2">
<path d="M414.558 77.4826C414.474 77.4826 414.38 77.5856 414.38 77.677L414.38 870.674C414.38 870.766 414.474 870.804 414.558 870.804L775.494 870.804C775.578 870.804 775.672 870.766 775.672 870.674L775.672 77.677C775.672 77.5857 775.578 77.4826 775.494 77.4826L414.558 77.4826ZM581.902 270.337L608.091 270.337C608.129 270.337 608.209 270.402 608.209 270.467L608.209 677.885C608.209 677.949 608.129 677.949 608.091 677.949L581.902 677.949C581.864 677.949 581.843 677.949 581.843 677.885L581.843 270.467C581.843 270.402 581.864 270.337 581.902 270.337Z" fill="#ae0606" fill-rule="nonzero" opacity="1" stroke="none" vectornator:layerName="Curve 2"/>
<path d="M15.9136 77.4826C15.8297 77.4826 15.7948 77.5856 15.7948 77.677L15.7948 870.674C15.7948 870.766 15.8298 870.804 15.9136 870.804L376.909 870.804C376.992 870.804 377.028 870.766 377.028 870.674L377.028 77.677C377.028 77.5857 376.992 77.4826 376.909 77.4826L15.9136 77.4826ZM183.317 270.337L209.505 270.337C209.544 270.337 209.565 270.402 209.565 270.467L209.565 677.885C209.565 677.949 209.544 677.949 209.505 677.949L183.317 677.949C183.278 677.949 183.258 677.949 183.258 677.885L183.258 270.467C183.258 270.402 183.278 270.337 183.317 270.337Z" fill="#ae0606" fill-rule="nonzero" opacity="1" stroke="none" vectornator:layerName="Curve 1"/>
<path d="M1218.74 77.4826C1218.65 77.4826 1218.56 77.5856 1218.56 77.677L1218.56 603.685L1399.14 604.657C1399.18 604.657 1399.2 604.678 1399.2 604.722L1399.09 634.596C1399.08 634.64 1399.06 634.661 1399.03 634.661L1218.56 633.689L1218.56 870.674C1218.56 870.766 1218.65 870.804 1218.74 870.804L1579.67 870.804C1579.76 870.804 1579.85 870.766 1579.85 870.674L1579.85 306.497L1399.26 305.525C1399.23 305.525 1399.2 305.498 1399.2 305.46L1399.32 279.734C1399.32 279.695 1399.35 279.668 1399.38 279.669L1579.85 280.641L1579.85 77.677C1579.85 77.5857 1579.76 77.4826 1579.67 77.4826L1218.74 77.4826Z" fill="#ae0606" fill-rule="nonzero" opacity="1" stroke="none" vectornator:layerName="Curve 4"/>
<path d="M1610.25 77.4826C1610.19 77.4826 1610.14 77.5856 1610.14 77.677L1610.14 603.231L1889.72 605.111L1889.72 77.677C1889.72 77.5857 1889.66 77.4826 1889.6 77.4826L1610.25 77.4826ZM1610.14 632.717L1610.14 870.674C1610.14 870.766 1610.19 870.804 1610.25 870.804L1889.6 870.804C1889.66 870.804 1889.72 870.766 1889.72 870.674L1889.72 634.596L1610.14 632.717Z" fill="#ae0606" fill-rule="nonzero" opacity="1" stroke="none" vectornator:layerName="Curve 5"/>
<path d="M814.628 77.4826C814.544 77.4826 814.509 77.5856 814.509 77.677L814.509 870.674C814.509 870.766 814.544 870.804 814.628 870.804L985.238 870.804L985.238 603.426C985.238 603.294 985.323 603.166 985.416 603.166L1175.74 603.166L1175.74 77.677C1175.74 77.5857 1175.71 77.4826 1175.62 77.4826L814.628 77.4826ZM1079.24 243.703L1103.89 243.768C1103.92 243.768 1103.95 243.737 1103.95 243.768L1103.83 440.705C1103.83 440.736 1103.81 440.705 1103.77 440.705L1079.12 440.705C1079.09 440.705 1079.06 440.671 1079.06 440.64L1079.18 243.768C1079.18 243.737 1079.21 243.703 1079.24 243.703Z" fill="#ae0606" fill-rule="nonzero" opacity="1" stroke="none" vectornator:layerName="Curve 3"/>
<g fill="#d83895" fill-opacity="0.959779" opacity="1" stroke="none" vectornator:layerName="Text 1">
<path d="M45.7936 964.707L45.7936 1003.78L26.2546 1003.78L26.2546 964.707L19.7776 964.707L19.7776 948.407L26.2546 948.407L26.2546 931.782L45.7936 931.782L45.7936 948.407L56.9124 948.407L56.9124 964.707L45.7936 964.707Z"/>
<path d="M77.3208 914.186L96.8598 914.186L96.8598 955.423C99.5225 952.185 102.221 950.008 104.956 948.892C107.691 947.777 110.893 947.219 114.564 947.219C121.544 947.219 126.816 949.144 130.378 952.994C133.941 956.845 135.722 962.044 135.722 968.593L135.722 1003.78L116.183 1003.78L116.183 975.826C116.183 973.019 115.967 970.752 115.535 969.025C115.103 967.298 114.384 965.966 113.376 965.031C111.649 963.52 109.562 962.764 107.115 962.764C103.805 962.764 101.268 963.753 99.5046 965.732C97.7414 967.712 96.8598 970.536 96.8598 974.207L96.8598 1003.78L77.3208 1003.78L77.3208 914.186Z"/>
<path d="M179.124 948.407L179.124 1003.78L159.585 1003.78L159.585 948.407L179.124 948.407ZM158.289 927.14C158.289 925.629 158.577 924.208 159.153 922.876C159.729 921.545 160.52 920.375 161.528 919.368C162.535 918.36 163.705 917.569 165.036 916.993C166.367 916.417 167.789 916.129 169.3 916.129C170.811 916.129 172.233 916.417 173.564 916.993C174.895 917.569 176.065 918.36 177.072 919.368C178.08 920.375 178.872 921.545 179.447 922.876C180.023 924.208 180.311 925.629 180.311 927.14C180.311 928.652 180.023 930.073 179.447 931.404C178.872 932.736 178.08 933.905 177.072 934.913C176.065 935.92 174.895 936.712 173.564 937.288C172.233 937.863 170.811 938.151 169.3 938.151C167.789 938.151 166.367 937.863 165.036 937.288C163.705 936.712 162.535 935.92 161.528 934.913C160.52 933.905 159.729 932.736 159.153 931.404C158.577 930.073 158.289 928.652 158.289 927.14Z"/>
<path d="M239.797 962.656C236.199 960.785 232.673 959.849 229.218 959.849C227.419 959.849 225.962 960.209 224.846 960.929C223.731 961.648 223.173 962.62 223.173 963.843C223.173 964.491 223.263 965.013 223.443 965.409C223.623 965.804 224.019 966.182 224.63 966.542C225.242 966.902 226.142 967.226 227.329 967.514C228.516 967.802 230.082 968.161 232.025 968.593C237.422 969.673 241.452 971.598 244.115 974.368C246.778 977.139 248.109 980.684 248.109 985.002C248.109 988.24 247.462 991.155 246.166 993.745C244.871 996.336 243.072 998.513 240.769 1000.28C238.466 1002.04 235.695 1003.41 232.457 1004.38C229.218 1005.35 225.656 1005.84 221.77 1005.84C214.285 1005.84 206.908 1003.71 199.64 999.467L206.765 985.649C212.234 989.392 217.416 991.263 222.309 991.263C224.109 991.263 225.584 990.867 226.735 990.075C227.887 989.284 228.463 988.276 228.463 987.053C228.463 986.333 228.373 985.739 228.193 985.271C228.013 984.804 227.635 984.372 227.059 983.976C226.483 983.58 225.638 983.22 224.522 982.897C223.407 982.573 221.95 982.231 220.15 981.871C214.105 980.648 209.877 978.83 207.466 976.42C205.055 974.009 203.85 970.68 203.85 966.434C203.85 963.34 204.426 960.551 205.577 958.068C206.729 955.585 208.384 953.48 210.543 951.753C212.702 950.026 215.311 948.694 218.369 947.759C221.428 946.823 224.828 946.355 228.57 946.355C234.688 946.355 240.625 947.543 246.382 949.918L239.797 962.656Z"/>
<path d="M360.065 976.258C360.065 974.53 359.759 972.893 359.148 971.346C358.536 969.799 357.654 968.449 356.503 967.298C355.351 966.146 354.002 965.229 352.455 964.545C350.907 963.861 349.234 963.52 347.435 963.52C345.708 963.52 344.089 963.843 342.577 964.491C341.066 965.139 339.753 966.038 338.637 967.19C337.522 968.341 336.622 969.691 335.938 971.238C335.255 972.785 334.913 974.422 334.913 976.15C334.913 977.877 335.237 979.496 335.884 981.007C336.532 982.519 337.432 983.832 338.583 984.948C339.735 986.063 341.084 986.963 342.631 987.646C344.179 988.33 345.816 988.672 347.543 988.672C349.27 988.672 350.889 988.348 352.401 987.7C353.912 987.053 355.225 986.153 356.341 985.002C357.456 983.85 358.356 982.519 359.04 981.007C359.723 979.496 360.065 977.913 360.065 976.258ZM335.453 1031.42L315.914 1031.42L315.914 948.407L335.453 948.407L335.453 954.56C339.627 949.306 345.312 946.679 352.509 946.679C356.467 946.679 360.155 947.453 363.574 949C366.992 950.548 369.961 952.653 372.479 955.315C374.998 957.978 376.959 961.109 378.363 964.707C379.766 968.305 380.468 972.155 380.468 976.258C380.468 980.36 379.766 984.174 378.363 987.7C376.959 991.227 375.016 994.321 372.533 996.984C370.051 999.647 367.118 1001.73 363.736 1003.25C360.353 1004.76 356.683 1005.51 352.725 1005.51C345.816 1005.51 340.059 1003.14 335.453 998.387L335.453 1031.42Z"/>
<path d="M420.307 975.934C420.307 977.733 420.631 979.406 421.279 980.953C421.926 982.501 422.808 983.85 423.923 985.002C425.039 986.153 426.37 987.053 427.918 987.7C429.465 988.348 431.138 988.672 432.937 988.672C434.665 988.672 436.302 988.348 437.849 987.7C439.396 987.053 440.728 986.153 441.843 985.002C442.959 983.85 443.858 982.519 444.542 981.007C445.226 979.496 445.567 977.877 445.567 976.15C445.567 974.422 445.226 972.785 444.542 971.238C443.858 969.691 442.959 968.341 441.843 967.19C440.728 966.038 439.396 965.139 437.849 964.491C436.302 963.843 434.665 963.52 432.937 963.52C431.138 963.52 429.465 963.843 427.918 964.491C426.37 965.139 425.039 966.038 423.923 967.19C422.808 968.341 421.926 969.655 421.279 971.13C420.631 972.605 420.307 974.207 420.307 975.934ZM444.92 948.407L464.567 948.407L464.567 1003.78L444.92 1003.78L444.92 997.632C440.746 1002.89 435.096 1005.51 427.972 1005.51C423.941 1005.51 420.235 1004.77 416.853 1003.3C413.47 1001.82 410.52 999.755 408.001 997.092C405.482 994.429 403.521 991.299 402.118 987.7C400.714 984.102 400.013 980.18 400.013 975.934C400.013 971.976 400.696 968.215 402.064 964.653C403.431 961.091 405.338 957.978 407.785 955.315C410.232 952.653 413.146 950.548 416.529 949C419.911 947.453 423.654 946.679 427.756 946.679C434.665 946.679 440.386 949.09 444.92 953.912L444.92 948.407Z"/>
<path d="M506.565 975.826C506.565 977.625 506.889 979.298 507.537 980.845C508.184 982.393 509.066 983.742 510.181 984.894C511.297 986.045 512.628 986.945 514.176 987.592C515.723 988.24 517.396 988.564 519.195 988.564C520.922 988.564 522.56 988.24 524.107 987.592C525.654 986.945 526.986 986.045 528.101 984.894C529.217 983.742 530.116 982.393 530.8 980.845C531.484 979.298 531.825 977.661 531.825 975.934C531.825 974.135 531.484 972.479 530.8 970.968C530.116 969.457 529.199 968.125 528.047 966.974C526.896 965.822 525.546 964.923 523.999 964.275C522.452 963.627 520.85 963.304 519.195 963.304C517.468 963.304 515.849 963.645 514.337 964.329C512.826 965.013 511.495 965.912 510.343 967.028C509.192 968.143 508.274 969.457 507.591 970.968C506.907 972.479 506.565 974.099 506.565 975.826ZM550.393 948.407L550.393 1000.01C550.393 1003.1 550.213 1005.87 549.853 1008.32C549.493 1010.77 548.989 1012.92 548.342 1014.8C547.478 1017.17 546.129 1019.38 544.294 1021.43C542.458 1023.49 540.245 1025.27 537.655 1026.78C535.064 1028.29 532.131 1029.48 528.857 1030.34C525.582 1031.2 522.038 1031.64 518.224 1031.64C513.906 1031.64 509.947 1031.1 506.349 1030.02C502.751 1028.94 499.602 1027.44 496.904 1025.54C494.205 1023.63 491.992 1021.4 490.265 1018.84C488.537 1016.29 487.386 1013.5 486.81 1010.48L508.832 1010.48C510.199 1014.15 513.294 1015.98 518.116 1015.98C522.218 1015.98 525.366 1014.83 527.561 1012.53C529.756 1010.23 530.854 1007.02 530.854 1002.92L530.854 997.632C529.414 998.999 528.029 1000.13 526.698 1001.03C525.366 1001.93 524.017 1002.67 522.65 1003.25C521.282 1003.82 519.843 1004.23 518.332 1004.49C516.82 1004.74 515.165 1004.86 513.366 1004.86C509.408 1004.86 505.773 1004.18 502.463 1002.81C499.152 1001.45 496.292 999.539 493.881 997.092C491.47 994.645 489.599 991.712 488.268 988.294C486.936 984.876 486.27 981.079 486.27 976.905C486.27 972.659 486.99 968.719 488.429 965.085C489.869 961.45 491.83 958.284 494.313 955.585C496.796 952.886 499.746 950.763 503.165 949.216C506.583 947.669 510.307 946.895 514.337 946.895C520.886 946.895 526.392 949.342 530.854 954.236L530.854 948.407L550.393 948.407Z"/>
<path d="M616.032 968.053C615.384 965.319 614.053 963.124 612.038 961.468C610.023 959.813 607.576 958.986 604.697 958.986C601.675 958.986 599.21 959.777 597.303 961.361C595.396 962.944 594.19 965.175 593.687 968.053L616.032 968.053ZM593.147 979.388C593.147 987.808 597.105 992.018 605.021 992.018C609.267 992.018 612.47 990.291 614.629 986.837L633.52 986.837C629.706 999.503 620.17 1005.84 604.913 1005.84C600.236 1005.84 595.953 1005.13 592.067 1003.73C588.181 1002.33 584.853 1000.33 582.082 997.74C579.311 995.149 577.17 992.054 575.659 988.456C574.148 984.858 573.392 980.827 573.392 976.366C573.392 971.76 574.112 967.604 575.551 963.897C576.99 960.191 579.041 957.043 581.704 954.452C584.367 951.861 587.587 949.864 591.366 948.46C595.144 947.057 599.408 946.355 604.158 946.355C608.836 946.355 613.046 947.057 616.788 948.46C620.53 949.864 623.697 951.897 626.287 954.56C628.878 957.222 630.857 960.479 632.225 964.329C633.592 968.179 634.276 972.515 634.276 977.337L634.276 979.388L593.147 979.388Z"/>
<path d="M722.806 948.407L722.806 1003.78L703.267 1003.78L703.267 948.407L722.806 948.407ZM701.972 927.14C701.972 925.629 702.26 924.208 702.836 922.876C703.411 921.545 704.203 920.375 705.211 919.368C706.218 918.36 707.388 917.569 708.719 916.993C710.05 916.417 711.472 916.129 712.983 916.129C714.494 916.129 715.916 916.417 717.247 916.993C718.578 917.569 719.748 918.36 720.755 919.368C721.763 920.375 722.555 921.545 723.13 922.876C723.706 924.208 723.994 925.629 723.994 927.14C723.994 928.652 723.706 930.073 723.13 931.404C722.555 932.736 721.763 933.905 720.755 934.913C719.748 935.92 718.578 936.712 717.247 937.288C715.916 937.863 714.494 938.151 712.983 938.151C711.472 938.151 710.05 937.863 708.719 937.288C707.388 936.712 706.218 935.92 705.211 934.913C704.203 933.905 703.411 932.736 702.836 931.404C702.26 930.073 701.972 928.652 701.972 927.14Z"/>
<path d="M783.48 962.656C779.882 960.785 776.355 959.849 772.901 959.849C771.102 959.849 769.645 960.209 768.529 960.929C767.414 961.648 766.856 962.62 766.856 963.843C766.856 964.491 766.946 965.013 767.126 965.409C767.306 965.804 767.701 966.182 768.313 966.542C768.925 966.902 769.824 967.226 771.012 967.514C772.199 967.802 773.765 968.161 775.708 968.593C781.105 969.673 785.135 971.598 787.798 974.368C790.461 977.139 791.792 980.684 791.792 985.002C791.792 988.24 791.145 991.155 789.849 993.745C788.554 996.336 786.755 998.513 784.452 1000.28C782.149 1002.04 779.378 1003.41 776.14 1004.38C772.901 1005.35 769.339 1005.84 765.453 1005.84C757.968 1005.84 750.591 1003.71 743.323 999.467L750.447 985.649C755.917 989.392 761.099 991.263 765.992 991.263C767.791 991.263 769.267 990.867 770.418 990.075C771.57 989.284 772.145 988.276 772.145 987.053C772.145 986.333 772.055 985.739 771.876 985.271C771.696 984.804 771.318 984.372 770.742 983.976C770.166 983.58 769.321 983.22 768.205 982.897C767.09 982.573 765.632 982.231 763.833 981.871C757.788 980.648 753.56 978.83 751.149 976.42C748.738 974.009 747.533 970.68 747.533 966.434C747.533 963.34 748.109 960.551 749.26 958.068C750.411 955.585 752.067 953.48 754.226 951.753C756.385 950.026 758.994 948.694 762.052 947.759C765.111 946.823 768.511 946.355 772.253 946.355C778.371 946.355 784.308 947.543 790.065 949.918L783.48 962.656Z"/>
<path d="M859.597 948.407L879.136 948.407L879.136 955.423C881.798 952.185 884.497 950.008 887.232 948.892C889.967 947.777 893.169 947.219 896.839 947.219C900.726 947.219 904.054 947.849 906.825 949.108C909.595 950.368 911.952 952.149 913.895 954.452C915.479 956.323 916.558 958.41 917.134 960.713C917.71 963.016 917.998 965.643 917.998 968.593L917.998 1003.78L898.459 1003.78L898.459 975.826C898.459 973.091 898.261 970.878 897.865 969.187C897.469 967.496 896.767 966.146 895.76 965.139C894.896 964.275 893.925 963.663 892.845 963.304C891.766 962.944 890.614 962.764 889.391 962.764C886.08 962.764 883.543 963.753 881.78 965.732C880.017 967.712 879.136 970.536 879.136 974.207L879.136 1003.78L859.597 1003.78L859.597 948.407Z"/>
<path d="M960.32 975.826C960.32 977.697 960.662 979.406 961.345 980.953C962.029 982.501 962.929 983.85 964.044 985.002C965.16 986.153 966.491 987.053 968.038 987.7C969.585 988.348 971.223 988.672 972.95 988.672C974.677 988.672 976.314 988.348 977.862 987.7C979.409 987.053 980.74 986.153 981.856 985.002C982.971 983.85 983.871 982.501 984.555 980.953C985.238 979.406 985.58 977.733 985.58 975.934C985.58 974.207 985.238 972.569 984.555 971.022C983.871 969.475 982.971 968.125 981.856 966.974C980.74 965.822 979.409 964.923 977.862 964.275C976.314 963.627 974.677 963.304 972.95 963.304C971.223 963.304 969.585 963.627 968.038 964.275C966.491 964.923 965.16 965.822 964.044 966.974C962.929 968.125 962.029 969.457 961.345 970.968C960.662 972.479 960.32 974.099 960.32 975.826ZM939.701 975.61C939.701 971.508 940.529 967.676 942.184 964.113C943.839 960.551 946.142 957.456 949.093 954.83C952.044 952.203 955.552 950.134 959.618 948.622C963.684 947.111 968.128 946.355 972.95 946.355C977.7 946.355 982.108 947.093 986.174 948.568C990.24 950.044 993.766 952.095 996.753 954.722C999.74 957.348 1002.06 960.479 1003.72 964.113C1005.37 967.748 1006.2 971.76 1006.2 976.15C1006.2 980.54 1005.35 984.552 1003.66 988.186C1001.97 991.82 999.65 994.951 996.699 997.578C993.748 1000.2 990.204 1002.24 986.066 1003.68C981.928 1005.12 977.448 1005.84 972.626 1005.84C967.876 1005.84 963.486 1005.12 959.456 1003.68C955.426 1002.24 951.954 1000.19 949.039 997.524C946.124 994.861 943.839 991.676 942.184 987.97C940.529 984.264 939.701 980.144 939.701 975.61Z"/>
<path d="M1050.14 964.707L1050.14 1003.78L1030.6 1003.78L1030.6 964.707L1024.12 964.707L1024.12 948.407L1030.6 948.407L1030.6 931.782L1050.14 931.782L1050.14 948.407L1061.26 948.407L1061.26 964.707L1050.14 964.707Z"/>
<path d="M1146.55 996.228L1119.78 948.407L1142.45 948.407L1157.24 976.797L1171.6 948.407L1194.05 948.407L1149.57 1031.42L1127.66 1031.42L1146.55 996.228Z"/>
<path d="M1249 968.053C1248.35 965.319 1247.02 963.124 1245.01 961.468C1242.99 959.813 1240.55 958.986 1237.67 958.986C1234.64 958.986 1232.18 959.777 1230.27 961.361C1228.36 962.944 1227.16 965.175 1226.66 968.053L1249 968.053ZM1226.12 979.388C1226.12 987.808 1230.07 992.018 1237.99 992.018C1242.24 992.018 1245.44 990.291 1247.6 986.837L1266.49 986.837C1262.68 999.503 1253.14 1005.84 1237.88 1005.84C1233.2 1005.84 1228.92 1005.13 1225.04 1003.73C1221.15 1002.33 1217.82 1000.33 1215.05 997.74C1212.28 995.149 1210.14 992.054 1208.63 988.456C1207.12 984.858 1206.36 980.827 1206.36 976.366C1206.36 971.76 1207.08 967.604 1208.52 963.897C1209.96 960.191 1212.01 957.043 1214.67 954.452C1217.34 951.861 1220.56 949.864 1224.33 948.46C1228.11 947.057 1232.38 946.355 1237.13 946.355C1241.8 946.355 1246.01 947.057 1249.76 948.46C1253.5 949.864 1256.67 951.897 1259.26 954.56C1261.85 957.222 1263.83 960.479 1265.19 964.329C1266.56 968.179 1267.24 972.515 1267.24 977.337L1267.24 979.388L1226.12 979.388Z"/>
<path d="M1311.51 964.707L1311.51 1003.78L1291.97 1003.78L1291.97 964.707L1285.49 964.707L1285.49 948.407L1291.97 948.407L1291.97 931.782L1311.51 931.782L1311.51 948.407L1322.63 948.407L1322.63 964.707L1311.51 964.707Z"/>
<path d="M1389.46 948.407L1389.46 938.151C1389.46 934.553 1390.24 931.153 1391.78 927.95C1393.33 924.747 1395.42 921.959 1398.04 919.584C1400.67 917.209 1403.73 915.32 1407.22 913.916C1410.71 912.513 1414.4 911.811 1418.28 911.811C1422.17 911.811 1425.86 912.495 1429.35 913.863C1432.84 915.23 1435.9 917.101 1438.53 919.476C1441.15 921.851 1443.24 924.64 1444.79 927.842C1446.33 931.045 1447.11 934.481 1447.11 938.151L1447.11 940.634L1427.57 940.634L1427.57 938.151C1427.57 936.856 1427.33 935.614 1426.87 934.427C1426.4 933.24 1425.75 932.178 1424.92 931.242C1424.1 930.307 1423.12 929.551 1422.01 928.976C1420.89 928.4 1419.65 928.112 1418.28 928.112C1415.62 928.112 1413.41 929.119 1411.65 931.135C1409.88 933.15 1409 935.488 1409 938.151L1409 948.407L1420.23 948.407L1420.23 964.707L1409 964.707L1409 1003.78L1389.46 1003.78L1389.46 964.707L1382.45 964.707L1382.45 948.407L1389.46 948.407ZM1447.11 1003.78L1427.57 1003.78L1427.57 948.407L1447.11 948.407L1447.11 1003.78Z"/>
<path d="M1471.08 948.407L1490.62 948.407L1490.62 955.423C1493.28 952.185 1495.98 950.008 1498.71 948.892C1501.45 947.777 1504.65 947.219 1508.32 947.219C1512.21 947.219 1515.54 947.849 1518.31 949.108C1521.08 950.368 1523.43 952.149 1525.38 954.452C1526.96 956.323 1528.04 958.41 1528.62 960.713C1529.19 963.016 1529.48 965.643 1529.48 968.593L1529.48 1003.78L1509.94 1003.78L1509.94 975.826C1509.94 973.091 1509.74 970.878 1509.35 969.187C1508.95 967.496 1508.25 966.146 1507.24 965.139C1506.38 964.275 1505.41 963.663 1504.33 963.304C1503.25 962.944 1502.1 962.764 1500.87 962.764C1497.56 962.764 1495.02 963.753 1493.26 965.732C1491.5 967.712 1490.62 970.536 1490.62 974.207L1490.62 1003.78L1471.08 1003.78L1471.08 948.407Z"/>
<path d="M1572.88 948.407L1572.88 1003.78L1553.34 1003.78L1553.34 948.407L1572.88 948.407ZM1552.05 927.14C1552.05 925.629 1552.33 924.208 1552.91 922.876C1553.49 921.545 1554.28 920.375 1555.28 919.368C1556.29 918.36 1557.46 917.569 1558.79 916.993C1560.12 916.417 1561.55 916.129 1563.06 916.129C1564.57 916.129 1565.99 916.417 1567.32 916.993C1568.65 917.569 1569.82 918.36 1570.83 919.368C1571.84 920.375 1572.63 921.545 1573.2 922.876C1573.78 924.208 1574.07 925.629 1574.07 927.14C1574.07 928.652 1573.78 930.073 1573.2 931.404C1572.63 932.736 1571.84 933.905 1570.83 934.913C1569.82 935.92 1568.65 936.712 1567.32 937.288C1565.99 937.863 1564.57 938.151 1563.06 938.151C1561.55 938.151 1560.12 937.863 1558.79 937.288C1557.46 936.712 1556.29 935.92 1555.28 934.913C1554.28 933.905 1553.49 932.736 1552.91 931.404C1552.33 930.073 1552.05 928.652 1552.05 927.14Z"/>
<path d="M1633.55 962.656C1629.96 960.785 1626.43 959.849 1622.98 959.849C1621.18 959.849 1619.72 960.209 1618.6 960.929C1617.49 961.648 1616.93 962.62 1616.93 963.843C1616.93 964.491 1617.02 965.013 1617.2 965.409C1617.38 965.804 1617.78 966.182 1618.39 966.542C1619 966.902 1619.9 967.226 1621.09 967.514C1622.27 967.802 1623.84 968.161 1625.78 968.593C1631.18 969.673 1635.21 971.598 1637.87 974.368C1640.54 977.139 1641.87 980.684 1641.87 985.002C1641.87 988.24 1641.22 991.155 1639.92 993.745C1638.63 996.336 1636.83 998.513 1634.53 1000.28C1632.22 1002.04 1629.45 1003.41 1626.21 1004.38C1622.98 1005.35 1619.41 1005.84 1615.53 1005.84C1608.04 1005.84 1600.67 1003.71 1593.4 999.467L1600.52 985.649C1605.99 989.392 1611.17 991.263 1616.07 991.263C1617.87 991.263 1619.34 990.867 1620.49 990.075C1621.64 989.284 1622.22 988.276 1622.22 987.053C1622.22 986.333 1622.13 985.739 1621.95 985.271C1621.77 984.804 1621.39 984.372 1620.82 983.976C1620.24 983.58 1619.39 983.22 1618.28 982.897C1617.16 982.573 1615.71 982.231 1613.91 981.871C1607.86 980.648 1603.63 978.83 1601.22 976.42C1598.81 974.009 1597.61 970.68 1597.61 966.434C1597.61 963.34 1598.18 960.551 1599.33 958.068C1600.49 955.585 1602.14 953.48 1604.3 951.753C1606.46 950.026 1609.07 948.694 1612.13 947.759C1615.18 946.823 1618.59 946.355 1622.33 946.355C1628.44 946.355 1634.38 947.543 1640.14 949.918L1633.55 962.656Z"/>
<path d="M1662.38 914.186L1681.92 914.186L1681.92 955.423C1684.58 952.185 1687.28 950.008 1690.02 948.892C1692.75 947.777 1695.96 947.219 1699.63 947.219C1706.61 947.219 1711.88 949.144 1715.44 952.994C1719 956.845 1720.78 962.044 1720.78 968.593L1720.78 1003.78L1701.24 1003.78L1701.24 975.826C1701.24 973.019 1701.03 970.752 1700.6 969.025C1700.17 967.298 1699.45 965.966 1698.44 965.031C1696.71 963.52 1694.62 962.764 1692.18 962.764C1688.87 962.764 1686.33 963.753 1684.57 965.732C1682.8 967.712 1681.92 970.536 1681.92 974.207L1681.92 1003.78L1662.38 1003.78L1662.38 914.186Z"/>
<path d="M1785.13 968.053C1784.48 965.319 1783.15 963.124 1781.13 961.468C1779.12 959.813 1776.67 958.986 1773.79 958.986C1770.77 958.986 1768.31 959.777 1766.4 961.361C1764.49 962.944 1763.29 965.175 1762.78 968.053L1785.13 968.053ZM1762.24 979.388C1762.24 987.808 1766.2 992.018 1774.12 992.018C1778.36 992.018 1781.57 990.291 1783.72 986.837L1802.62 986.837C1798.8 999.503 1789.27 1005.84 1774.01 1005.84C1769.33 1005.84 1765.05 1005.13 1761.16 1003.73C1757.28 1002.33 1753.95 1000.33 1751.18 997.74C1748.41 995.149 1746.27 992.054 1744.75 988.456C1743.24 984.858 1742.49 980.827 1742.49 976.366C1742.49 971.76 1743.21 967.604 1744.65 963.897C1746.09 960.191 1748.14 957.043 1750.8 954.452C1753.46 951.861 1756.68 949.864 1760.46 948.46C1764.24 947.057 1768.5 946.355 1773.25 946.355C1777.93 946.355 1782.14 947.057 1785.88 948.46C1789.63 949.864 1792.79 951.897 1795.38 954.56C1797.97 957.222 1799.95 960.479 1801.32 964.329C1802.69 968.179 1803.37 972.515 1803.37 977.337L1803.37 979.388L1762.24 979.388Z"/>
<path d="M1843.21 975.934C1843.21 977.733 1843.53 979.406 1844.18 980.953C1844.83 982.501 1845.71 983.85 1846.83 985.002C1847.94 986.153 1849.27 987.053 1850.82 987.7C1852.37 988.348 1854.04 988.672 1855.84 988.672C1857.57 988.672 1859.21 988.348 1860.75 987.7C1862.3 987.053 1863.63 986.153 1864.75 985.002C1865.86 983.85 1866.76 982.519 1867.45 981.007C1868.13 979.496 1868.47 977.877 1868.47 976.15C1868.47 974.422 1868.13 972.785 1867.45 971.238C1866.76 969.691 1865.86 968.341 1864.75 967.19C1863.63 966.038 1862.3 965.139 1860.75 964.491C1859.21 963.843 1857.57 963.52 1855.84 963.52C1854.11 963.52 1852.48 963.843 1850.93 964.491C1849.38 965.139 1848.05 966.038 1846.94 967.19C1845.82 968.341 1844.92 969.655 1844.24 971.13C1843.55 972.605 1843.21 974.207 1843.21 975.934ZM1867.82 914.186L1887.47 914.186L1887.47 1003.78L1867.82 1003.78L1867.82 997.632C1863.65 1002.89 1858 1005.51 1850.88 1005.51C1846.85 1005.51 1843.14 1004.76 1839.76 1003.25C1836.37 1001.73 1833.42 999.647 1830.9 996.984C1828.39 994.321 1826.42 991.191 1825.02 987.592C1823.62 983.994 1822.92 980.108 1822.92 975.934C1822.92 971.976 1823.58 968.215 1824.91 964.653C1826.24 961.091 1828.13 957.978 1830.58 955.315C1833.03 952.653 1835.96 950.548 1839.38 949C1842.8 947.453 1846.56 946.679 1850.66 946.679C1857.57 946.679 1863.29 949.09 1867.82 953.912L1867.82 914.186Z"/>
</g>
</g>
</svg>
